<svg width="613" height="127" viewBox="0 0 613 127" fill="none" xmlns="http://www.w3.org/2000/svg">
<g clip-path="url(#clip0_2162_36167)">
<path d="M86.5856 87.7059C88.6618 93.6158 90.8118 99.3722 93.0245 104.986C95.1462 103.052 97.2223 101.062 99.2473 99.0252C97.4953 94.4861 95.7832 89.856 94.1166 85.1179C85.6755 61.1198 78.3549 34.6362 72.2118 5.92841C69.2313 3.94896 66.1881 2.04914 63.0825 0.251709C69.5726 32.1277 77.314 61.336 86.5799 87.6946L86.5856 87.7059Z" fill="#606060"/>
<path d="M56.4845 79.0998C63.9871 91.2438 71.9845 103.348 80.4597 115.395C82.5871 113.797 84.6746 112.153 86.7223 110.458C78.503 98.7578 70.7331 87.0005 63.4467 75.2148C52.4289 57.4054 42.4861 39.4994 33.6582 21.6388C31.5991 23.4988 29.5855 25.41 27.6118 27.3667C36.2235 44.6243 45.8591 61.9047 56.4788 79.1055L56.4845 79.0998Z" fill="#606060"/>
<path d="M70.5223 122.348C72.7918 120.875 75.0272 119.356 77.2172 117.78L8.84075 49.4097C7.26515 51.6053 5.74644 53.835 4.27322 56.1045L70.5166 122.348H70.5223Z" fill="#606060"/>
<path d="M156.423 63.3513C156.423 45.4623 169.87 31.6573 188.117 31.6573C199.88 31.6573 210.084 37.9029 215.01 47.146L201.683 54.95C199.283 50.0298 194.118 46.9071 187.998 46.9071C178.754 46.9071 171.912 53.7498 171.912 63.357C171.912 72.9642 178.754 79.6875 187.998 79.6875C194.243 79.6875 199.402 76.6842 201.802 71.764L215.249 79.4486C210.084 88.8112 199.88 95.0567 188.117 95.0567C169.87 95.0567 156.423 81.2517 156.423 63.3627V63.3513Z" fill="black"/>
<path d="M287.169 33.3353V93.3616H271.68V86.28C267.358 91.6836 260.873 95.0453 252.113 95.0453C236.147 95.0453 222.939 81.2403 222.939 63.3513C222.939 45.4623 236.147 31.6573 252.113 31.6573C260.879 31.6573 267.363 35.019 271.68 40.4227V33.341H287.169V33.3353ZM271.68 63.3513C271.68 53.2664 264.599 46.4236 254.992 46.4236C245.384 46.4236 238.422 53.2664 238.422 63.3513C238.422 73.4363 245.504 80.279 254.992 80.279C264.479 80.279 271.68 73.4363 271.68 63.3513Z" fill="black"/>
<path d="M323.789 48.223V73.1936C323.789 79.6781 328.47 79.7975 337.355 79.314V93.3579C315.627 95.7583 308.3 89.3933 308.3 73.188V48.2173H297.857V33.3316H308.3V21.2046L323.789 16.5233V33.3316H337.355V48.2173H323.789V48.223Z" fill="black"/>
<path d="M411.789 33.3353V93.3616H396.301V86.28C391.978 91.6836 385.493 95.0453 376.734 95.0453C360.767 95.0453 347.559 81.2403 347.559 63.3513C347.559 45.4623 360.767 31.6573 376.734 31.6573C385.499 31.6573 391.983 35.019 396.301 40.4227V33.341H411.789V33.3353ZM396.301 63.3513C396.301 53.2664 389.219 46.4236 379.612 46.4236C370.005 46.4236 363.042 53.2664 363.042 63.3513C363.042 73.4363 370.124 80.279 379.612 80.279C389.099 80.279 396.301 73.4363 396.301 63.3513Z" fill="black"/>
<path d="M425.173 13.8048L440.662 9.26001V93.364H425.173V13.8048Z" fill="black"/>
<path d="M512.4 33.3377L490.552 93.364C484.307 110.65 474.102 118.215 458.858 117.373V102.966C467.385 103.085 471.708 99.4844 474.586 91.4415L449.974 33.332H466.901L482.509 73.6719L495.837 33.332H512.406L512.4 33.3377Z" fill="black"/>
<path d="M565.026 75.8387C565.026 88.8075 553.741 95.0473 540.898 95.0473C528.89 95.0473 520.005 90.0077 515.688 80.7589L529.135 73.1937C530.813 78.1139 534.897 80.9978 540.898 80.9978C545.818 80.9978 549.179 79.3198 549.179 75.833C549.179 67.0677 518.202 71.8741 518.202 50.7429C518.202 38.4964 528.645 31.6537 541.011 31.6537C550.738 31.6537 559.139 36.0961 563.821 44.3779L550.613 51.579C548.81 47.7396 545.448 45.4587 541.006 45.4587C537.166 45.4587 534.043 47.1366 534.043 50.3788C534.043 59.2636 565.021 53.7405 565.021 75.833L565.026 75.8387Z" fill="black"/>
<path d="M598.762 48.223V73.1936C598.762 79.6781 603.444 79.7975 612.328 79.314V93.3579C590.6 95.7583 583.274 89.3933 583.274 73.188V48.2173H572.83V33.3316H583.274V21.2046L598.762 16.5233V33.3316H612.328V48.2173H598.762V48.223Z" fill="black"/>
<path fill-rule="evenodd" clip-rule="evenodd" d="M80.7728 115.156C72.2976 103.109 64.2945 90.9988 56.7976 78.8605C46.1722 61.6654 36.5423 44.385 27.9306 27.1217C21.0821 33.9246 14.7968 41.3021 9.15991 49.1687L77.5363 117.545C78.6284 116.76 79.7092 115.964 80.7785 115.156H80.7728Z" fill="black"/>
<path fill-rule="evenodd" clip-rule="evenodd" d="M63.7598 74.9777C71.0462 86.7634 78.8161 98.5207 87.0354 110.221C89.1855 108.441 91.2958 106.609 93.3606 104.726C91.1479 99.1179 89.0092 93.3616 86.933 87.463C77.6899 61.1386 69.8403 31.8507 63.3616 -0.00256348C63.3616 -0.00256348 63.3616 -0.00256348 63.3559 -0.00256348C52.8045 6.10075 42.9642 13.2848 33.9713 21.4017C42.7935 39.2679 52.742 57.1683 63.7598 74.9777Z" fill="black"/>
<path fill-rule="evenodd" clip-rule="evenodd" d="M94.4702 84.887C96.1311 89.6137 97.8375 94.2382 99.5838 98.7659C110.073 88.2088 119.208 76.315 126.705 63.3462C113.338 40.2355 94.7773 20.5093 72.6223 5.75439C78.7426 34.4337 86.0404 60.9003 94.4702 84.8813V84.887Z" fill="black"/>
<path fill-rule="evenodd" clip-rule="evenodd" d="M4.58694 55.8671C2.99997 58.3186 1.46419 60.81 0.00234985 63.3469C15.1952 89.6088 37.0943 111.508 63.3562 126.701C65.8931 125.233 68.3844 123.703 70.836 122.116L4.58694 55.8671Z" fill="black"/>
<path d="M86.8984 87.4731C88.9746 93.3831 91.1247 99.1394 93.3373 104.754C95.459 102.82 97.5351 100.829 99.5601 98.7924C97.8081 94.2533 96.096 89.6232 94.4294 84.8851C85.9883 60.8871 78.6678 34.4034 72.5246 5.69562C69.5441 3.71617 66.501 1.81635 63.3953 0.0189209C69.8854 31.8949 77.6268 61.1032 86.8927 87.4618L86.8984 87.4731Z" fill="white"/>
<path d="M56.7973 78.867C64.2999 91.011 72.2973 103.115 80.7725 115.163C82.8999 113.564 84.9874 111.92 87.0351 110.225C78.8158 98.525 71.0459 86.7677 63.7595 74.982C52.7417 57.1727 42.7989 39.2666 33.971 21.406C31.9119 23.266 29.8984 25.1772 27.9246 27.1339C36.5363 44.3915 46.1719 61.6719 56.7916 78.8727L56.7973 78.867Z" fill="white"/>
<path d="M70.8351 122.119C73.1046 120.646 75.34 119.127 77.53 117.551L9.15356 49.175C7.57796 51.3706 6.05924 53.6004 4.58603 55.8699L70.8294 122.113L70.8351 122.119Z" fill="white"/>
</g>
<defs>
<clipPath id="clip0_2162_36167">
<rect width="612.327" height="126.702" fill="white"/>
</clipPath>
</defs>
</svg>
